REM DIRINDEX 1\2,1\3,1\4,1\5
REM DIRNAME cjc044,folder01,folder02,folder03,folder04
TITLE ""
FILE "1800_066.mp3" MP3
  TRACK 01 AUDIO
    TITLE "2:cjc044_1629"
    INDEX 01 00:00:00
  TRACK 02 AUDIO
    TITLE "0:"
    INDEX 01 00:01:01
  TRACK 03 AUDIO
    TITLE "3:cjc044_1630"
    INDEX 01 00:01:60
  TRACK 04 AUDIO
    TITLE "0:"
    INDEX 01 00:02:67
  TRACK 05 AUDIO
    TITLE "4:cjc044_1631"
    INDEX 01 00:03:59
  TRACK 06 AUDIO
    TITLE "0:"
    INDEX 01 00:04:60
  TRACK 07 AUDIO
    TITLE "5:cjc044_1632"
    INDEX 01 00:05:44
  TRACK 08 AUDIO
    TITLE "0:"
    INDEX 01 00:08:15
  TRACK 09 AUDIO
    TITLE "2:cjc044_1633"
    INDEX 01 00:10:00
  TRACK 10 AUDIO
    TITLE "0:"
    INDEX 01 00:11:15
  TRACK 11 AUDIO
    TITLE "3:cjc044_1634"
    INDEX 01 00:12:01
  TRACK 12 AUDIO
    TITLE "0:"
    INDEX 01 00:13:12
  TRACK 13 AUDIO
    TITLE "4:cjc044_1635"
    INDEX 01 00:13:73
  TRACK 14 AUDIO
    TITLE "0:"
    INDEX 01 00:15:19
  TRACK 15 AUDIO
    TITLE "5:cjc044_1636"
    INDEX 01 00:15:68
  TRACK 16 AUDIO
    TITLE "0:"
    INDEX 01 00:19:16
  TRACK 17 AUDIO
    TITLE "2:cjc044_1637"
    INDEX 01 00:20:65
  TRACK 18 AUDIO
    TITLE "0:"
    INDEX 01 00:21:72
  TRACK 19 AUDIO
    TITLE "3:cjc044_1638"
    INDEX 01 00:22:64
  TRACK 20 AUDIO
    TITLE "0:"
    INDEX 01 00:23:73
  TRACK 21 AUDIO
    TITLE "4:cjc044_1639"
    INDEX 01 00:24:53
  TRACK 22 AUDIO
    TITLE "0:"
    INDEX 01 00:25:64
  TRACK 23 AUDIO
    TITLE "5:cjc044_1640"
    INDEX 01 00:26:38
  TRACK 24 AUDIO
    TITLE "0:"
    INDEX 01 00:29:13
  TRACK 25 AUDIO
    TITLE "2:cjc044_1641"
    INDEX 01 00:31:00
  TRACK 26 AUDIO
    TITLE "0:"
    INDEX 01 00:32:27
  TRACK 27 AUDIO
    TITLE "3:cjc044_1642"
    INDEX 01 00:33:07
  TRACK 28 AUDIO
    TITLE "0:"
    INDEX 01 00:34:16
  TRACK 29 AUDIO
    TITLE "4:cjc044_1643"
    INDEX 01 00:35:04
  TRACK 30 AUDIO
    TITLE "0:"
    INDEX 01 00:36:31
  TRACK 31 AUDIO
    TITLE "5:cjc044_1644"
    INDEX 01 00:37:12
  TRACK 32 AUDIO
    TITLE "0:"
    INDEX 01 00:40:40
  TRACK 33 AUDIO
    TITLE "2:cjc044_1645"
    INDEX 01 00:42:23
  TRACK 34 AUDIO
    TITLE "0:"
    INDEX 01 00:43:21
  TRACK 35 AUDIO
    TITLE "3:cjc044_1646"
    INDEX 01 00:44:14
  TRACK 36 AUDIO
    TITLE "0:"
    INDEX 01 00:44:73
  TRACK 37 AUDIO
    TITLE "4:cjc044_1647"
    INDEX 01 00:45:49
  TRACK 38 AUDIO
    TITLE "0:"
    INDEX 01 00:46:49
  TRACK 39 AUDIO
    TITLE "5:cjc044_1648"
    INDEX 01 00:47:23
  TRACK 40 AUDIO
    TITLE "0:"
    INDEX 01 00:50:21
  TRACK 41 AUDIO
    TITLE "2:cjc044_1649"
    INDEX 01 00:52:08
  TRACK 42 AUDIO
    TITLE "0:"
    INDEX 01 00:53:25
  TRACK 43 AUDIO
    TITLE "3:cjc044_1650"
    INDEX 01 00:54:13
  TRACK 44 AUDIO
    TITLE "0:"
    INDEX 01 00:55:14
  TRACK 45 AUDIO
    TITLE "4:cjc044_1651"
    INDEX 01 00:55:67
  TRACK 46 AUDIO
    TITLE "0:"
    INDEX 01 00:57:09
  TRACK 47 AUDIO
    TITLE "5:cjc044_1652"
    INDEX 01 00:57:56
  TRACK 48 AUDIO
    TITLE "0:"
    INDEX 01 01:01:09
  TRACK 49 AUDIO
    TITLE "2:cjc044_1653"
    INDEX 01 01:02:67
  TRACK 50 AUDIO
    TITLE "0:"
    INDEX 01 01:04:21
  TRACK 51 AUDIO
    TITLE "3:cjc044_1654"
    INDEX 01 01:05:03
  TRACK 52 AUDIO
    TITLE "0:"
    INDEX 01 01:06:16
  TRACK 53 AUDIO
    TITLE "4:cjc044_1655"
    INDEX 01 01:06:73
  TRACK 54 AUDIO
    TITLE "0:"
    INDEX 01 01:08:27
  TRACK 55 AUDIO
    TITLE "5:cjc044_1656"
    INDEX 01 01:09:07
  TRACK 56 AUDIO
    TITLE "0:"
    INDEX 01 01:12:66
  TRACK 57 AUDIO
    TITLE "2:cjc044_1657"
    INDEX 01 01:14:51
  TRACK 58 AUDIO
    TITLE "0:"
    INDEX 01 01:15:58
  TRACK 59 AUDIO
    TITLE "3:cjc044_1658"
    INDEX 01 01:16:40
  TRACK 60 AUDIO
    TITLE "0:"
    INDEX 01 01:17:43
  TRACK 61 AUDIO
    TITLE "4:cjc044_1659"
    INDEX 01 01:18:29
  TRACK 62 AUDIO
    TITLE "0:"
    INDEX 01 01:19:38
  TRACK 63 AUDIO
    TITLE "5:cjc044_1660"
    INDEX 01 01:20:16
  TRACK 64 AUDIO
    TITLE "0:"
    INDEX 01 01:23:73
